<svg width="22" height="22" viewBox="0 0 22 22" fill="none" xmlns="http://www.w3.org/2000/svg">
<path d="M11 21C16.5228 21 21 16.5228 21 11C21 5.47715 16.5228 1 11 1C5.47715 1 1 5.47715 1 11C1 16.5228 5.47715 21 11 21Z" fill="#20EEB0" stroke="#20EEB0" stroke-width="2"/>
<path d="M9.77833 13.657L7.9143 11.7253C7.81386 11.6212 7.67763 11.5628 7.53558 11.5628C7.39354 11.5628 7.25731 11.6212 7.15687 11.7253C7.05643 11.8294 7 11.9706 7 12.1178C7 12.1907 7.01385 12.2628 7.04077 12.3302C7.06768 12.3975 7.10714 12.4587 7.15687 12.5102L9.4023 14.8372C9.6118 15.0543 9.95023 15.0543 10.1597 14.8372L15.8431 8.94748C15.9436 8.8434 16 8.70222 16 8.55502C16 8.40782 15.9436 8.26665 15.8431 8.16256C15.7427 8.05848 15.6065 8 15.4644 8C15.3224 8 15.1861 8.05848 15.0857 8.16256L9.77833 13.657Z" fill="white"/>
</svg>
